<svg xmlns="http://www.w3.org/2000/svg" xmlns:xlink="http://www.w3.org/1999/xlink" contentStyleType="text/css" data-diagram-type="CLASS" height="1197px" preserveAspectRatio="none" style="width:1772px;height:1197px;background:#FFFFFF;" version="1.1" viewBox="0 0 1772 1197" width="1772px" zoomAndPan="magnify"><defs/><g><!--class Game--><g class="entity" data-entity="Game" data-source-line="2" data-uid="ent0002" id="entity_Game"><rect fill="#F1F1F1" height="210.9688" rx="2.5" ry="2.5" style="stroke:#181818;stroke-width:0.5;" width="278.3623" x="1160.55" y="7"/><ellipse cx="1274.6418" cy="23" fill="#ADD1B2" rx="11" ry="11" style="stroke:#181818;stroke-width:1;"/><path d="M1277.6105,28.6406 Q1277.0324,28.9375 1276.3918,29.0781 Q1275.7512,29.2344 1275.048,29.2344 Q1272.548,29.2344 1271.2199,27.5938 Q1269.9074,25.9375 1269.9074,22.8125 Q1269.9074,19.6875 1271.2199,18.0313 Q1272.548,16.375 1275.048,16.375 Q1275.7512,16.375 1276.3918,16.5313 Q1277.048,16.6875 1277.6105,16.9844 L1277.6105,19.7031 Q1276.9855,19.125 1276.3918,18.8594 Q1275.798,18.5781 1275.173,18.5781 Q1273.8293,18.5781 1273.1418,19.6563 Q1272.4543,20.7188 1272.4543,22.8125 Q1272.4543,24.9063 1273.1418,25.9844 Q1273.8293,27.0469 1275.173,27.0469 Q1275.798,27.0469 1276.3918,26.7813 Q1276.9855,26.5 1277.6105,25.9219 L1277.6105,28.6406 Z " fill="#000000"/><text fill="#000000" font-family="sans-serif" font-size="14" lengthAdjust="spacing" textLength="41.6787" x="1295.1418" y="27.8467">Game</text><line style="stroke:#181818;stroke-width:0.5;" x1="1161.55" x2="1437.9123" y1="39" y2="39"/><rect fill="none" height="6" style="stroke:#C82930;stroke-width:1;" width="6" x="1168.55" y="49.6484"/><text fill="#000000" font-family="sans-serif" font-size="14" lengthAdjust="spacing" textLength="100.9326" x="1180.55" y="55.9951">Player player1</text><rect fill="none" height="6" style="stroke:#C82930;stroke-width:1;" width="6" x="1168.55" y="65.9453"/><text fill="#000000" font-family="sans-serif" font-size="14" lengthAdjust="spacing" textLength="100.9326" x="1180.55" y="72.292">Player player2</text><rect fill="none" height="6" style="stroke:#C82930;stroke-width:1;" width="6" x="1168.55" y="82.2422"/><text fill="#000000" font-family="sans-serif" font-size="14" lengthAdjust="spacing" textLength="61.25" x="1180.55" y="88.5889">Grid grid</text><rect fill="none" height="6" style="stroke:#C82930;stroke-width:1;" width="6" x="1168.55" y="98.5391"/><text fill="#000000" font-family="sans-serif" font-size="14" lengthAdjust="spacing" textLength="92.709" x="1180.55" y="104.8857">BattleLog log</text><rect fill="none" height="6" style="stroke:#C82930;stroke-width:1;" width="6" x="1168.55" y="114.8359"/><text fill="#000000" font-family="sans-serif" font-size="14" lengthAdjust="spacing" textLength="252.3623" x="1180.55" y="121.1826">CurrencyManager currencyManager</text><line style="stroke:#181818;stroke-width:0.5;" x1="1161.55" x2="1437.9123" y1="128.4844" y2="128.4844"/><ellipse cx="1171.55" cy="142.1328" fill="#84BE84" rx="3" ry="3" style="stroke:#038048;stroke-width:1;"/><text fill="#000000" font-family="sans-serif" font-size="14" lengthAdjust="spacing" textLength="85.21" x="1180.55" y="145.4795">startGame()</text><ellipse cx="1171.55" cy="158.4297" fill="#84BE84" rx="3" ry="3" style="stroke:#038048;stroke-width:1;"/><text fill="#000000" font-family="sans-serif" font-size="14" lengthAdjust="spacing" textLength="74.2383" x="1180.55" y="161.7764">nextTurn()</text><ellipse cx="1171.55" cy="174.7266" fill="#84BE84" rx="3" ry="3" style="stroke:#038048;stroke-width:1;"/><text fill="#000000" font-family="sans-serif" font-size="14" lengthAdjust="spacing" textLength="175.2734" x="1180.55" y="178.0732">checkVictoryConditions()</text><ellipse cx="1171.55" cy="191.0234" fill="#84BE84" rx="3" ry="3" style="stroke:#038048;stroke-width:1;"/><text fill="#000000" font-family="sans-serif" font-size="14" lengthAdjust="spacing" textLength="99.1826" x="1180.55" y="194.3701">switchPlayer()</text><ellipse cx="1171.55" cy="207.3203" fill="#84BE84" rx="3" ry="3" style="stroke:#038048;stroke-width:1;"/><text fill="#000000" font-family="sans-serif" font-size="14" lengthAdjust="spacing" textLength="57.4219" x="1180.55" y="210.667">render()</text></g><!--class Player--><g class="entity" data-entity="Player" data-source-line="16" data-uid="ent0003" id="entity_Player"><rect fill="#F1F1F1" height="178.375" rx="2.5" ry="2.5" style="stroke:#181818;stroke-width:0.5;" width="292.8203" x="1020.32" y="294.97"/><ellipse cx="1140.6974" cy="310.97" fill="#ADD1B2" rx="11" ry="11" style="stroke:#181818;stroke-width:1;"/><path d="M1143.6662,316.6106 Q1143.0881,316.9075 1142.4474,317.0481 Q1141.8068,317.2044 1141.1037,317.2044 Q1138.6037,317.2044 1137.2756,315.5638 Q1135.9631,313.9075 1135.9631,310.7825 Q1135.9631,307.6575 1137.2756,306.0013 Q1138.6037,304.345 1141.1037,304.345 Q1141.8068,304.345 1142.4474,304.5013 Q1143.1037,304.6575 1143.6662,304.9544 L1143.6662,307.6731 Q1143.0412,307.095 1142.4474,306.8294 Q1141.8537,306.5481 1141.2287,306.5481 Q1139.8849,306.5481 1139.1974,307.6263 Q1138.5099,308.6888 1138.5099,310.7825 Q1138.5099,312.8763 1139.1974,313.9544 Q1139.8849,315.0169 1141.2287,315.0169 Q1141.8537,315.0169 1142.4474,314.7513 Q1143.0412,314.47 1143.6662,313.8919 L1143.6662,316.6106 Z " fill="#000000"/><text fill="#000000" font-family="sans-serif" font-size="14" lengthAdjust="spacing" textLength="43.5654" x="1161.1974" y="315.8167">Player</text><line style="stroke:#181818;stroke-width:0.5;" x1="1021.32" x2="1312.1403" y1="326.97" y2="326.97"/><rect fill="none" height="6" style="stroke:#C82930;stroke-width:1;" width="6" x="1028.32" y="337.6184"/><text fill="#000000" font-family="sans-serif" font-size="14" lengthAdjust="spacing" textLength="84.3418" x="1040.32" y="343.9651">string name</text><rect fill="none" height="6" style="stroke:#C82930;stroke-width:1;" width="6" x="1028.32" y="353.9153"/><text fill="#000000" font-family="sans-serif" font-size="14" lengthAdjust="spacing" textLength="108.3496" x="1040.32" y="360.262">int actionPoints</text><rect fill="none" height="6" style="stroke:#C82930;stroke-width:1;" width="6" x="1028.32" y="370.2122"/><text fill="#000000" font-family="sans-serif" font-size="14" lengthAdjust="spacing" textLength="84.2529" x="1040.32" y="376.5589">int currency</text><rect fill="none" height="6" style="stroke:#C82930;stroke-width:1;" width="6" x="1028.32" y="386.5091"/><text fill="#000000" font-family="sans-serif" font-size="14" lengthAdjust="spacing" textLength="119.1572" x="1040.32" y="392.8557">List&lt;Ship&gt; ships</text><line style="stroke:#181818;stroke-width:0.5;" x1="1021.32" x2="1312.1403" y1="400.1575" y2="400.1575"/><ellipse cx="1031.32" cy="413.8059" fill="#84BE84" rx="3" ry="3" style="stroke:#038048;stroke-width:1;"/><text fill="#000000" font-family="sans-serif" font-size="14" lengthAdjust="spacing" textLength="168.1025" x="1040.32" y="417.1526">buyShip(ShipType type)</text><ellipse cx="1031.32" cy="430.1028" fill="#84BE84" rx="3" ry="3" style="stroke:#038048;stroke-width:1;"/><text fill="#000000" font-family="sans-serif" font-size="14" lengthAdjust="spacing" textLength="164.6025" x="1040.32" y="433.4495">upgradeShip(int shipId)</text><ellipse cx="1031.32" cy="446.3997" fill="#84BE84" rx="3" ry="3" style="stroke:#038048;stroke-width:1;"/><text fill="#000000" font-family="sans-serif" font-size="14" lengthAdjust="spacing" textLength="266.8203" x="1040.32" y="449.7464">moveShip(int shipId, Position newPos)</text><ellipse cx="1031.32" cy="462.6966" fill="#84BE84" rx="3" ry="3" style="stroke:#038048;stroke-width:1;"/><text fill="#000000" font-family="sans-serif" font-size="14" lengthAdjust="spacing" textLength="157.1377" x="1040.32" y="466.0432">attack(Position target)</text></g><!--class Ship--><g class="entity" data-entity="Ship" data-source-line="28" data-uid="ent0004" id="entity_Ship"><rect fill="#F1F1F1" height="243.5625" rx="2.5" ry="2.5" style="stroke:#181818;stroke-width:0.5;" width="394.5869" x="723.44" y="773.13"/><ellipse cx="901.2154" cy="789.13" fill="#A9DCDF" rx="11" ry="11" style="stroke:#181818;stroke-width:1;"/><path d="M901.3248,784.4738 L900.1685,789.5519 L902.4966,789.5519 L901.3248,784.4738 Z M899.8404,782.2394 L902.8248,782.2394 L906.1841,794.63 L903.731,794.63 L902.9654,791.5675 L899.6841,791.5675 L898.9341,794.63 L896.4966,794.63 L899.8404,782.2394 Z " fill="#000000"/><text fill="#000000" font-family="sans-serif" font-size="14" font-style="italic" lengthAdjust="spacing" textLength="30.5361" x="921.7154" y="793.9767">Ship</text><line style="stroke:#181818;stroke-width:0.5;" x1="724.44" x2="1117.0269" y1="805.13" y2="805.13"/><rect fill="none" height="6" style="stroke:#C82930;stroke-width:1;" width="6" x="731.44" y="815.7784"/><text fill="#000000" font-family="sans-serif" font-size="14" lengthAdjust="spacing" textLength="84.3418" x="743.44" y="822.1251">string name</text><rect fill="none" height="6" style="stroke:#C82930;stroke-width:1;" width="6" x="731.44" y="832.0753"/><text fill="#000000" font-family="sans-serif" font-size="14" lengthAdjust="spacing" textLength="67.0195" x="743.44" y="838.422">int health</text><rect fill="none" height="6" style="stroke:#C82930;stroke-width:1;" width="6" x="731.44" y="848.3722"/><text fill="#000000" font-family="sans-serif" font-size="14" lengthAdjust="spacing" textLength="114.9121" x="743.44" y="854.7189">Position position</text><rect fill="none" height="6" style="stroke:#C82930;stroke-width:1;" width="6" x="731.44" y="864.6691"/><text fill="#000000" font-family="sans-serif" font-size="14" lengthAdjust="spacing" textLength="57.5449" x="743.44" y="871.0157">int price</text><rect fill="none" height="6" style="stroke:#C82930;stroke-width:1;" width="6" x="731.44" y="880.9659"/><text fill="#000000" font-family="sans-serif" font-size="14" lengthAdjust="spacing" textLength="148.2783" x="743.44" y="887.3126">set&lt;int&gt; elementSet</text><rect fill="none" height="6" style="stroke:#C82930;stroke-width:1;" width="6" x="731.44" y="897.2628"/><text fill="#000000" font-family="sans-serif" font-size="14" lengthAdjust="spacing" textLength="135.6592" x="743.44" y="903.6095">List&lt;int&gt; elements</text><line style="stroke:#181818;stroke-width:0.5;" x1="724.44" x2="1117.0269" y1="910.9113" y2="910.9113"/><ellipse cx="734.44" cy="924.5597" fill="#84BE84" rx="3" ry="3" style="stroke:#038048;stroke-width:1;"/><text fill="#000000" font-family="sans-serif" font-size="14" lengthAdjust="spacing" textLength="123.252" x="743.44" y="927.9064">search(int target)</text><ellipse cx="734.44" cy="940.8566" fill="#84BE84" rx="3" ry="3" style="stroke:#038048;stroke-width:1;"/><text fill="#000000" font-family="sans-serif" font-size="14" lengthAdjust="spacing" textLength="131.2705" x="743.44" y="944.2032">insert(int element)</text><ellipse cx="734.44" cy="957.1534" fill="#84BE84" rx="3" ry="3" style="stroke:#038048;stroke-width:1;"/><text fill="#000000" font-family="sans-serif" font-size="14" lengthAdjust="spacing" textLength="144.8262" x="743.44" y="960.5001">remove(int element)</text><ellipse cx="734.44" cy="973.4503" fill="#84BE84" rx="3" ry="3" style="stroke:#038048;stroke-width:1;"/><text fill="#000000" font-family="sans-serif" font-size="14" lengthAdjust="spacing" textLength="69.4053" x="743.44" y="976.797">upgrade()</text><ellipse cx="734.44" cy="989.7472" fill="#84BE84" rx="3" ry="3" style="stroke:#038048;stroke-width:1;"/><text fill="#000000" font-family="sans-serif" font-size="14" lengthAdjust="spacing" textLength="222.4482" x="743.44" y="993.0939">calculateDamage(int iterations)</text><ellipse cx="734.44" cy="1006.0441" fill="#84BE84" rx="3" ry="3" style="stroke:#038048;stroke-width:1;"/><text fill="#000000" font-family="sans-serif" font-size="14" lengthAdjust="spacing" textLength="368.5869" x="743.44" y="1009.3907">logOperation(string type, int iterations, double time)</text></g><!--class AuroraShip--><g class="entity" data-entity="AuroraShip" data-source-line="44" data-uid="ent0005" id="entity_AuroraShip"><rect fill="#F1F1F1" height="48" rx="2.5" ry="2.5" style="stroke:#181818;stroke-width:0.5;" width="109.6426" x="326.91" y="1110.29"/><ellipse cx="341.91" cy="1126.29" fill="#ADD1B2" rx="11" ry="11" style="stroke:#181818;stroke-width:1;"/><path d="M344.8788,1131.9306 Q344.3006,1132.2275 343.66,1132.3681 Q343.0194,1132.5244 342.3163,1132.5244 Q339.8163,1132.5244 338.4881,1130.8838 Q337.1756,1129.2275 337.1756,1126.1025 Q337.1756,1122.9775 338.4881,1121.3213 Q339.8163,1119.665 342.3163,1119.665 Q343.0194,1119.665 343.66,1119.8213 Q344.3163,1119.9775 344.8788,1120.2744 L344.8788,1122.9931 Q344.2538,1122.415 343.66,1122.1494 Q343.0663,1121.8681 342.4413,1121.8681 Q341.0975,1121.8681 340.41,1122.9463 Q339.7225,1124.0088 339.7225,1126.1025 Q339.7225,1128.1963 340.41,1129.2744 Q341.0975,1130.3369 342.4413,1130.3369 Q343.0663,1130.3369 343.66,1130.0713 Q344.2538,1129.79 344.8788,1129.2119 L344.8788,1131.9306 Z " fill="#000000"/><text fill="#000000" font-family="sans-serif" font-size="14" lengthAdjust="spacing" textLength="77.6426" x="355.91" y="1131.1367">AuroraShip</text><line style="stroke:#181818;stroke-width:0.5;" x1="327.91" x2="435.5526" y1="1142.29" y2="1142.29"/><line style="stroke:#181818;stroke-width:0.5;" x1="327.91" x2="435.5526" y1="1150.29" y2="1150.29"/></g><!--class VanguardiaShip--><g class="entity" data-entity="VanguardiaShip" data-source-line="45" data-uid="ent0006" id="entity_VanguardiaShip"><rect fill="#F1F1F1" height="48" rx="2.5" ry="2.5" style="stroke:#181818;stroke-width:0.5;" width="143.0156" x="849.22" y="1110.29"/><ellipse cx="864.22" cy="1126.29" fill="#ADD1B2" rx="11" ry="11" style="stroke:#181818;stroke-width:1;"/><path d="M867.1888,1131.9306 Q866.6106,1132.2275 865.97,1132.3681 Q865.3294,1132.5244 864.6263,1132.5244 Q862.1263,1132.5244 860.7981,1130.8838 Q859.4856,1129.2275 859.4856,1126.1025 Q859.4856,1122.9775 860.7981,1121.3213 Q862.1263,1119.665 864.6263,1119.665 Q865.3294,1119.665 865.97,1119.8213 Q866.6263,1119.9775 867.1888,1120.2744 L867.1888,1122.9931 Q866.5638,1122.415 865.97,1122.1494 Q865.3763,1121.8681 864.7513,1121.8681 Q863.4075,1121.8681 862.72,1122.9463 Q862.0325,1124.0088 862.0325,1126.1025 Q862.0325,1128.1963 862.72,1129.2744 Q863.4075,1130.3369 864.7513,1130.3369 Q865.3763,1130.3369 865.97,1130.0713 Q866.5638,1129.79 867.1888,1129.2119 L867.1888,1131.9306 Z " fill="#000000"/><text fill="#000000" font-family="sans-serif" font-size="14" lengthAdjust="spacing" textLength="111.0156" x="878.22" y="1131.1367">VanguardiaShip</text><line style="stroke:#181818;stroke-width:0.5;" x1="850.22" x2="991.2356" y1="1142.29" y2="1142.29"/><line style="stroke:#181818;stroke-width:0.5;" x1="850.22" x2="991.2356" y1="1150.29" y2="1150.29"/></g><!--class CentinelaShip--><g class="entity" data-entity="CentinelaShip" data-source-line="46" data-uid="ent0007" id="entity_CentinelaShip"><rect fill="#F1F1F1" height="48" rx="2.5" ry="2.5" style="stroke:#181818;stroke-width:0.5;" width="129.1318" x="1027.17" y="1110.29"/><ellipse cx="1042.17" cy="1126.29" fill="#ADD1B2" rx="11" ry="11" style="stroke:#181818;stroke-width:1;"/><path d="M1045.1388,1131.9306 Q1044.5606,1132.2275 1043.92,1132.3681 Q1043.2794,1132.5244 1042.5763,1132.5244 Q1040.0763,1132.5244 1038.7481,1130.8838 Q1037.4356,1129.2275 1037.4356,1126.1025 Q1037.4356,1122.9775 1038.7481,1121.3213 Q1040.0763,1119.665 1042.5763,1119.665 Q1043.2794,1119.665 1043.92,1119.8213 Q1044.5763,1119.9775 1045.1388,1120.2744 L1045.1388,1122.9931 Q1044.5138,1122.415 1043.92,1122.1494 Q1043.3263,1121.8681 1042.7013,1121.8681 Q1041.3575,1121.8681 1040.67,1122.9463 Q1039.9825,1124.0088 1039.9825,1126.1025 Q1039.9825,1128.1963 1040.67,1129.2744 Q1041.3575,1130.3369 1042.7013,1130.3369 Q1043.3263,1130.3369 1043.92,1130.0713 Q1044.5138,1129.79 1045.1388,1129.2119 L1045.1388,1131.9306 Z " fill="#000000"/><text fill="#000000" font-family="sans-serif" font-size="14" lengthAdjust="spacing" textLength="97.1318" x="1056.17" y="1131.1367">CentinelaShip</text><line style="stroke:#181818;stroke-width:0.5;" x1="1028.17" x2="1155.3018" y1="1142.29" y2="1142.29"/><line style="stroke:#181818;stroke-width:0.5;" x1="1028.17" x2="1155.3018" y1="1150.29" y2="1150.29"/></g><!--class ResolucionShip--><g class="entity" data-entity="ResolucionShip" data-source-line="47" data-uid="ent0008" id="entity_ResolucionShip"><rect fill="#F1F1F1" height="48" rx="2.5" ry="2.5" style="stroke:#181818;stroke-width:0.5;" width="138.5244" x="1191.47" y="1110.29"/><ellipse cx="1206.47" cy="1126.29" fill="#ADD1B2" rx="11" ry="11" style="stroke:#181818;stroke-width:1;"/><path d="M1209.4388,1131.9306 Q1208.8606,1132.2275 1208.22,1132.3681 Q1207.5794,1132.5244 1206.8763,1132.5244 Q1204.3763,1132.5244 1203.0481,1130.8838 Q1201.7356,1129.2275 1201.7356,1126.1025 Q1201.7356,1122.9775 1203.0481,1121.3213 Q1204.3763,1119.665 1206.8763,1119.665 Q1207.5794,1119.665 1208.22,1119.8213 Q1208.8763,1119.9775 1209.4388,1120.2744 L1209.4388,1122.9931 Q1208.8138,1122.415 1208.22,1122.1494 Q1207.6263,1121.8681 1207.0013,1121.8681 Q1205.6575,1121.8681 1204.97,1122.9463 Q1204.2825,1124.0088 1204.2825,1126.1025 Q1204.2825,1128.1963 1204.97,1129.2744 Q1205.6575,1130.3369 1207.0013,1130.3369 Q1207.6263,1130.3369 1208.22,1130.0713 Q1208.8138,1129.79 1209.4388,1129.2119 L1209.4388,1131.9306 Z " fill="#000000"/><text fill="#000000" font-family="sans-serif" font-size="14" lengthAdjust="spacing" textLength="106.5244" x="1220.47" y="1131.1367">ResolucionShip</text><line style="stroke:#181818;stroke-width:0.5;" x1="1192.47" x2="1328.9944" y1="1142.29" y2="1142.29"/><line style="stroke:#181818;stroke-width:0.5;" x1="1192.47" x2="1328.9944" y1="1150.29" y2="1150.29"/></g><!--class InvictoShip--><g class="entity" data-entity="InvictoShip" data-source-line="48" data-uid="ent0009" id="entity_InvictoShip"><rect fill="#F1F1F1" height="48" rx="2.5" ry="2.5" style="stroke:#181818;stroke-width:0.5;" width="109.4648" x="7" y="1110.29"/><ellipse cx="22" cy="1126.29" fill="#ADD1B2" rx="11" ry="11" style="stroke:#181818;stroke-width:1;"/><path d="M24.9688,1131.9306 Q24.3906,1132.2275 23.75,1132.3681 Q23.1094,1132.5244 22.4063,1132.5244 Q19.9063,1132.5244 18.5781,1130.8838 Q17.2656,1129.2275 17.2656,1126.1025 Q17.2656,1122.9775 18.5781,1121.3213 Q19.9063,1119.665 22.4063,1119.665 Q23.1094,1119.665 23.75,1119.8213 Q24.4063,1119.9775 24.9688,1120.2744 L24.9688,1122.9931 Q24.3438,1122.415 23.75,1122.1494 Q23.1563,1121.8681 22.5313,1121.8681 Q21.1875,1121.8681 20.5,1122.9463 Q19.8125,1124.0088 19.8125,1126.1025 Q19.8125,1128.1963 20.5,1129.2744 Q21.1875,1130.3369 22.5313,1130.3369 Q23.1563,1130.3369 23.75,1130.0713 Q24.3438,1129.79 24.9688,1129.2119 L24.9688,1131.9306 Z " fill="#000000"/><text fill="#000000" font-family="sans-serif" font-size="14" lengthAdjust="spacing" textLength="77.4648" x="36" y="1131.1367">InvictoShip</text><line style="stroke:#181818;stroke-width:0.5;" x1="8" x2="115.4648" y1="1142.29" y2="1142.29"/><line style="stroke:#181818;stroke-width:0.5;" x1="8" x2="115.4648" y1="1150.29" y2="1150.29"/></g><!--class TempestadShip--><g class="entity" data-entity="TempestadShip" data-source-line="49" data-uid="ent0010" id="entity_TempestadShip"><rect fill="#F1F1F1" height="48" rx="2.5" ry="2.5" style="stroke:#181818;stroke-width:0.5;" width="141.0879" x="151.19" y="1110.29"/><ellipse cx="166.19" cy="1126.29" fill="#ADD1B2" rx="11" ry="11" style="stroke:#181818;stroke-width:1;"/><path d="M169.1588,1131.9306 Q168.5806,1132.2275 167.94,1132.3681 Q167.2994,1132.5244 166.5963,1132.5244 Q164.0963,1132.5244 162.7681,1130.8838 Q161.4556,1129.2275 161.4556,1126.1025 Q161.4556,1122.9775 162.7681,1121.3213 Q164.0963,1119.665 166.5963,1119.665 Q167.2994,1119.665 167.94,1119.8213 Q168.5963,1119.9775 169.1588,1120.2744 L169.1588,1122.9931 Q168.5338,1122.415 167.94,1122.1494 Q167.3463,1121.8681 166.7213,1121.8681 Q165.3775,1121.8681 164.69,1122.9463 Q164.0025,1124.0088 164.0025,1126.1025 Q164.0025,1128.1963 164.69,1129.2744 Q165.3775,1130.3369 166.7213,1130.3369 Q167.3463,1130.3369 167.94,1130.0713 Q168.5338,1129.79 169.1588,1129.2119 L169.1588,1131.9306 Z " fill="#000000"/><text fill="#000000" font-family="sans-serif" font-size="14" lengthAdjust="spacing" textLength="109.0879" x="180.19" y="1131.1367">TempestadShip</text><line style="stroke:#181818;stroke-width:0.5;" x1="152.19" x2="291.2779" y1="1142.29" y2="1142.29"/><line style="stroke:#181818;stroke-width:0.5;" x1="152.19" x2="291.2779" y1="1150.29" y2="1150.29"/></g><!--class Grid--><g class="entity" data-entity="Grid" data-source-line="59" data-uid="ent0017" id="entity_Grid"><rect fill="#F1F1F1" height="145.7813" rx="2.5" ry="2.5" style="stroke:#181818;stroke-width:0.5;" width="201.0068" x="846.23" y="550.35"/><ellipse cx="927.793" cy="566.35" fill="#ADD1B2" rx="11" ry="11" style="stroke:#181818;stroke-width:1;"/><path d="M930.7617,571.9906 Q930.1836,572.2875 929.543,572.4281 Q928.9024,572.5844 928.1992,572.5844 Q925.6992,572.5844 924.3711,570.9438 Q923.0586,569.2875 923.0586,566.1625 Q923.0586,563.0375 924.3711,561.3813 Q925.6992,559.725 928.1992,559.725 Q928.9024,559.725 929.543,559.8813 Q930.1992,560.0375 930.7617,560.3344 L930.7617,563.0531 Q930.1367,562.475 929.543,562.2094 Q928.9492,561.9281 928.3242,561.9281 Q926.9805,561.9281 926.293,563.0063 Q925.6055,564.0688 925.6055,566.1625 Q925.6055,568.2563 926.293,569.3344 Q926.9805,570.3969 928.3242,570.3969 Q928.9492,570.3969 929.543,570.1313 Q930.1367,569.85 930.7617,569.2719 L930.7617,571.9906 Z " fill="#000000"/><text fill="#000000" font-family="sans-serif" font-size="14" lengthAdjust="spacing" textLength="29.3809" x="948.293" y="571.1967">Grid</text><line style="stroke:#181818;stroke-width:0.5;" x1="847.23" x2="1046.2368" y1="582.35" y2="582.35"/><rect fill="none" height="6" style="stroke:#C82930;stroke-width:1;" width="6" x="854.23" y="592.9984"/><text fill="#000000" font-family="sans-serif" font-size="14" lengthAdjust="spacing" textLength="97.1182" x="866.23" y="599.3451">Ship[ ][ ] cells</text><line style="stroke:#181818;stroke-width:0.5;" x1="847.23" x2="1046.2368" y1="606.6469" y2="606.6469"/><ellipse cx="857.23" cy="620.2953" fill="#84BE84" rx="3" ry="3" style="stroke:#038048;stroke-width:1;"/><text fill="#000000" font-family="sans-serif" font-size="14" lengthAdjust="spacing" textLength="173.5713" x="866.23" y="623.642">placeShip(Ship, Position)</text><ellipse cx="857.23" cy="636.5922" fill="#84BE84" rx="3" ry="3" style="stroke:#038048;stroke-width:1;"/><text fill="#000000" font-family="sans-serif" font-size="14" lengthAdjust="spacing" textLength="175.0068" x="866.23" y="639.9389">moveShip(Ship, Position)</text><ellipse cx="857.23" cy="652.8891" fill="#84BE84" rx="3" ry="3" style="stroke:#038048;stroke-width:1;"/><text fill="#000000" font-family="sans-serif" font-size="14" lengthAdjust="spacing" textLength="134.5244" x="866.23" y="656.2357">getShipAt(Position)</text><ellipse cx="857.23" cy="669.1859" fill="#84BE84" rx="3" ry="3" style="stroke:#038048;stroke-width:1;"/><text fill="#000000" font-family="sans-serif" font-size="14" lengthAdjust="spacing" textLength="149.9395" x="866.23" y="672.5326">removeShip(Position)</text><ellipse cx="857.23" cy="685.4828" fill="#84BE84" rx="3" ry="3" style="stroke:#038048;stroke-width:1;"/><text fill="#000000" font-family="sans-serif" font-size="14" lengthAdjust="spacing" textLength="104.2002" x="866.23" y="688.8295">display(Player)</text></g><!--class BattleLog--><g class="entity" data-entity="BattleLog" data-source-line="69" data-uid="ent0018" id="entity_BattleLog"><rect fill="#F1F1F1" height="113.1875" rx="2.5" ry="2.5" style="stroke:#181818;stroke-width:0.5;" width="220.9746" x="1365.25" y="1077.69"/><ellipse cx="1438.0288" cy="1093.69" fill="#ADD1B2" rx="11" ry="11" style="stroke:#181818;stroke-width:1;"/><path d="M1440.9976,1099.3306 Q1440.4194,1099.6275 1439.7788,1099.7681 Q1439.1382,1099.9244 1438.4351,1099.9244 Q1435.9351,1099.9244 1434.6069,1098.2838 Q1433.2944,1096.6275 1433.2944,1093.5025 Q1433.2944,1090.3775 1434.6069,1088.7213 Q1435.9351,1087.065 1438.4351,1087.065 Q1439.1382,1087.065 1439.7788,1087.2213 Q1440.4351,1087.3775 1440.9976,1087.6744 L1440.9976,1090.3931 Q1440.3726,1089.815 1439.7788,1089.5494 Q1439.1851,1089.2681 1438.5601,1089.2681 Q1437.2163,1089.2681 1436.5288,1090.3463 Q1435.8413,1091.4088 1435.8413,1093.5025 Q1435.8413,1095.5963 1436.5288,1096.6744 Q1437.2163,1097.7369 1438.5601,1097.7369 Q1439.1851,1097.7369 1439.7788,1097.4713 Q1440.3726,1097.19 1440.9976,1096.6119 L1440.9976,1099.3306 Z " fill="#000000"/><text fill="#000000" font-family="sans-serif" font-size="14" lengthAdjust="spacing" textLength="66.917" x="1458.5288" y="1098.5367">BattleLog</text><line style="stroke:#181818;stroke-width:0.5;" x1="1366.25" x2="1585.2246" y1="1109.69" y2="1109.69"/><line style="stroke:#181818;stroke-width:0.5;" x1="1366.25" x2="1585.2246" y1="1117.69" y2="1117.69"/><ellipse cx="1376.25" cy="1131.3384" fill="#84BE84" rx="3" ry="3" style="stroke:#038048;stroke-width:1;"/><text fill="#000000" font-family="sans-serif" font-size="14" lengthAdjust="spacing" textLength="194.9746" x="1385.25" y="1134.6851">logSearch(Ship, int, double)</text><ellipse cx="1376.25" cy="1147.6353" fill="#84BE84" rx="3" ry="3" style="stroke:#038048;stroke-width:1;"/><text fill="#000000" font-family="sans-serif" font-size="14" lengthAdjust="spacing" textLength="174.3301" x="1385.25" y="1150.982">logAttack(Ship, Ship, int)</text><ellipse cx="1376.25" cy="1163.9322" fill="#84BE84" rx="3" ry="3" style="stroke:#038048;stroke-width:1;"/><text fill="#000000" font-family="sans-serif" font-size="14" lengthAdjust="spacing" textLength="149.8096" x="1385.25" y="1167.2789">logUpgrade(Ship, int)</text><ellipse cx="1376.25" cy="1180.2291" fill="#84BE84" rx="3" ry="3" style="stroke:#038048;stroke-width:1;"/><text fill="#000000" font-family="sans-serif" font-size="14" lengthAdjust="spacing" textLength="187.4346" x="1385.25" y="1183.5757">exportLog(string filename)</text></g><!--class Position--><g class="entity" data-entity="Position" data-source-line="77" data-uid="ent0019" id="entity_Position"><rect fill="#F1F1F1" height="96.8906" rx="2.5" ry="2.5" style="stroke:#181818;stroke-width:0.5;" width="158.583" x="471.44" y="1085.84"/><ellipse cx="518.9771" cy="1101.84" fill="#ADD1B2" rx="11" ry="11" style="stroke:#181818;stroke-width:1;"/><path d="M521.9459,1107.4806 Q521.3677,1107.7775 520.7271,1107.9181 Q520.0865,1108.0744 519.3834,1108.0744 Q516.8834,1108.0744 515.5552,1106.4338 Q514.2427,1104.7775 514.2427,1101.6525 Q514.2427,1098.5275 515.5552,1096.8713 Q516.8834,1095.215 519.3834,1095.215 Q520.0865,1095.215 520.7271,1095.3713 Q521.3834,1095.5275 521.9459,1095.8244 L521.9459,1098.5431 Q521.3209,1097.965 520.7271,1097.6994 Q520.1334,1097.4181 519.5084,1097.4181 Q518.1646,1097.4181 517.4771,1098.4963 Q516.7896,1099.5588 516.7896,1101.6525 Q516.7896,1103.7463 517.4771,1104.8244 Q518.1646,1105.8869 519.5084,1105.8869 Q520.1334,1105.8869 520.7271,1105.6213 Q521.3209,1105.34 521.9459,1104.7619 L521.9459,1107.4806 Z " fill="#000000"/><text fill="#000000" font-family="sans-serif" font-size="14" lengthAdjust="spacing" textLength="55.0088" x="539.4771" y="1106.6867">Position</text><line style="stroke:#181818;stroke-width:0.5;" x1="472.44" x2="629.023" y1="1117.84" y2="1117.84"/><ellipse cx="482.44" cy="1131.4884" fill="none" rx="3" ry="3" style="stroke:#038048;stroke-width:1;"/><text fill="#000000" font-family="sans-serif" font-size="14" lengthAdjust="spacing" textLength="30.9873" x="491.44" y="1134.8351">int x</text><ellipse cx="482.44" cy="1147.7853" fill="none" rx="3" ry="3" style="stroke:#038048;stroke-width:1;"/><text fill="#000000" font-family="sans-serif" font-size="14" lengthAdjust="spacing" textLength="30.9873" x="491.44" y="1151.132">int y</text><line style="stroke:#181818;stroke-width:0.5;" x1="472.44" x2="629.023" y1="1158.4338" y2="1158.4338"/><ellipse cx="482.44" cy="1172.0822" fill="#84BE84" rx="3" ry="3" style="stroke:#038048;stroke-width:1;"/><text fill="#000000" font-family="sans-serif" font-size="14" lengthAdjust="spacing" textLength="132.583" x="491.44" y="1175.4289">operators (==, !=)</text></g><!--class Timer--><g class="entity" data-entity="Timer" data-source-line="84" data-uid="ent0020" id="entity_Timer"><rect fill="#F1F1F1" height="96.8906" rx="2.5" ry="2.5" style="stroke:#181818;stroke-width:0.5;" width="149.6006" x="664.93" y="1085.84"/><ellipse cx="715.2562" cy="1101.84" fill="#ADD1B2" rx="11" ry="11" style="stroke:#181818;stroke-width:1;"/><path d="M718.2249,1107.4806 Q717.6468,1107.7775 717.0062,1107.9181 Q716.3655,1108.0744 715.6624,1108.0744 Q713.1624,1108.0744 711.8343,1106.4338 Q710.5218,1104.7775 710.5218,1101.6525 Q710.5218,1098.5275 711.8343,1096.8713 Q713.1624,1095.215 715.6624,1095.215 Q716.3655,1095.215 717.0062,1095.3713 Q717.6624,1095.5275 718.2249,1095.8244 L718.2249,1098.5431 Q717.5999,1097.965 717.0062,1097.6994 Q716.4124,1097.4181 715.7874,1097.4181 Q714.4437,1097.4181 713.7562,1098.4963 Q713.0687,1099.5588 713.0687,1101.6525 Q713.0687,1103.7463 713.7562,1104.8244 Q714.4437,1105.8869 715.7874,1105.8869 Q716.4124,1105.8869 717.0062,1105.6213 Q717.5999,1105.34 718.2249,1104.7619 L718.2249,1107.4806 Z " fill="#000000"/><text fill="#000000" font-family="sans-serif" font-size="14" lengthAdjust="spacing" textLength="40.4482" x="735.7562" y="1106.6867">Timer</text><line style="stroke:#181818;stroke-width:0.5;" x1="665.93" x2="813.5306" y1="1117.84" y2="1117.84"/><line style="stroke:#181818;stroke-width:0.5;" x1="665.93" x2="813.5306" y1="1125.84" y2="1125.84"/><ellipse cx="675.93" cy="1139.4884" fill="#84BE84" rx="3" ry="3" style="stroke:#038048;stroke-width:1;"/><text fill="#000000" font-family="sans-serif" font-size="14" lengthAdjust="spacing" textLength="43.5313" x="684.93" y="1142.8351">start()</text><ellipse cx="675.93" cy="1155.7853" fill="#84BE84" rx="3" ry="3" style="stroke:#038048;stroke-width:1;"/><text fill="#000000" font-family="sans-serif" font-size="14" lengthAdjust="spacing" textLength="41.1592" x="684.93" y="1159.132">stop()</text><ellipse cx="675.93" cy="1172.0822" fill="#84BE84" rx="3" ry="3" style="stroke:#038048;stroke-width:1;"/><text fill="#000000" font-family="sans-serif" font-size="14" lengthAdjust="spacing" textLength="123.6006" x="684.93" y="1175.4289">getElapsedTime()</text></g><!--class Config--><g class="entity" data-entity="Config" data-source-line="91" data-uid="ent0021" id="entity_Config"><rect fill="#F1F1F1" height="96.8906" rx="2.5" ry="2.5" style="stroke:#181818;stroke-width:0.5;" width="291.0977" x="1474.18" y="64.04"/><ellipse cx="1593.0194" cy="80.04" fill="#ADD1B2" rx="11" ry="11" style="stroke:#181818;stroke-width:1;"/><path d="M1595.9881,85.6806 Q1595.41,85.9775 1594.7694,86.1181 Q1594.1287,86.2744 1593.4256,86.2744 Q1590.9256,86.2744 1589.5975,84.6338 Q1588.285,82.9775 1588.285,79.8525 Q1588.285,76.7275 1589.5975,75.0713 Q1590.9256,73.415 1593.4256,73.415 Q1594.1287,73.415 1594.7694,73.5713 Q1595.4256,73.7275 1595.9881,74.0244 L1595.9881,76.7431 Q1595.3631,76.165 1594.7694,75.8994 Q1594.1756,75.6181 1593.5506,75.6181 Q1592.2069,75.6181 1591.5194,76.6963 Q1590.8319,77.7588 1590.8319,79.8525 Q1590.8319,81.9463 1591.5194,83.0244 Q1592.2069,84.0869 1593.5506,84.0869 Q1594.1756,84.0869 1594.7694,83.8213 Q1595.3631,83.54 1595.9881,82.9619 L1595.9881,85.6806 Z " fill="#000000"/><text fill="#000000" font-family="sans-serif" font-size="14" lengthAdjust="spacing" textLength="44.9189" x="1613.5194" y="84.8867">Config</text><line style="stroke:#181818;stroke-width:0.5;" x1="1475.18" x2="1764.2777" y1="96.04" y2="96.04"/><ellipse cx="1485.18" cy="109.6884" fill="none" rx="3" ry="3" style="stroke:#038048;stroke-width:1;"/><text fill="#000000" font-family="sans-serif" font-size="14" lengthAdjust="spacing" textLength="265.0977" x="1494.18" y="113.0351">static const int CURRENCY_PER_TURN</text><ellipse cx="1485.18" cy="125.9853" fill="none" rx="3" ry="3" style="stroke:#038048;stroke-width:1;"/><text fill="#000000" font-family="sans-serif" font-size="14" lengthAdjust="spacing" textLength="248.1582" x="1494.18" y="129.332">static const int NUM_OF_ELEMENTS</text><ellipse cx="1485.18" cy="142.2822" fill="none" rx="3" ry="3" style="stroke:#038048;stroke-width:1;"/><text fill="#000000" font-family="sans-serif" font-size="14" lengthAdjust="spacing" textLength="216.583" x="1494.18" y="145.6289">static const int SHIP_PRICES[6]</text><line style="stroke:#181818;stroke-width:0.5;" x1="1475.18" x2="1764.2777" y1="152.9306" y2="152.9306"/></g><!--class CurrencyManager--><g class="entity" data-entity="CurrencyManager" data-source-line="98" data-uid="ent0022" id="entity_CurrencyManager"><rect fill="#F1F1F1" height="96.8906" rx="2.5" ry="2.5" style="stroke:#181818;stroke-width:0.5;" width="214.5078" x="1258.48" y="574.79"/><ellipse cx="1299.3607" cy="590.79" fill="#ADD1B2" rx="11" ry="11" style="stroke:#181818;stroke-width:1;"/><path d="M1302.3295,596.4306 Q1301.7513,596.7275 1301.1107,596.8681 Q1300.4701,597.0244 1299.767,597.0244 Q1297.267,597.0244 1295.9388,595.3838 Q1294.6263,593.7275 1294.6263,590.6025 Q1294.6263,587.4775 1295.9388,585.8213 Q1297.267,584.165 1299.767,584.165 Q1300.4701,584.165 1301.1107,584.3213 Q1301.767,584.4775 1302.3295,584.7744 L1302.3295,587.4931 Q1301.7045,586.915 1301.1107,586.6494 Q1300.517,586.3681 1299.892,586.3681 Q1298.5482,586.3681 1297.8607,587.4463 Q1297.1732,588.5088 1297.1732,590.6025 Q1297.1732,592.6963 1297.8607,593.7744 Q1298.5482,594.8369 1299.892,594.8369 Q1300.517,594.8369 1301.1107,594.5713 Q1301.7045,594.29 1302.3295,593.7119 L1302.3295,596.4306 Z " fill="#000000"/><text fill="#000000" font-family="sans-serif" font-size="14" lengthAdjust="spacing" textLength="124.9951" x="1319.112" y="595.6367">CurrencyManager</text><line style="stroke:#181818;stroke-width:0.5;" x1="1259.48" x2="1471.9878" y1="606.79" y2="606.79"/><line style="stroke:#181818;stroke-width:0.5;" x1="1259.48" x2="1471.9878" y1="614.79" y2="614.79"/><ellipse cx="1269.48" cy="628.4384" fill="#84BE84" rx="3" ry="3" style="stroke:#038048;stroke-width:1;"/><text fill="#000000" font-family="sans-serif" font-size="14" lengthAdjust="spacing" textLength="171.623" x="1278.48" y="631.7851">addCurrency(Player, int)</text><ellipse cx="1269.48" cy="644.7353" fill="#84BE84" rx="3" ry="3" style="stroke:#038048;stroke-width:1;"/><text fill="#000000" font-family="sans-serif" font-size="14" lengthAdjust="spacing" textLength="187.8242" x="1278.48" y="648.082">spendCurrency(Player, int)</text><ellipse cx="1269.48" cy="661.0322" fill="#84BE84" rx="3" ry="3" style="stroke:#038048;stroke-width:1;"/><text fill="#000000" font-family="sans-serif" font-size="14" lengthAdjust="spacing" textLength="188.5078" x="1278.48" y="664.3789">canAfford(Player, int): bool</text></g><!--reverse link Ship to AuroraShip--><g class="link" data-entity-1="Ship" data-entity-2="AuroraShip" data-source-line="51" data-uid="lnk11" id="link_Ship_AuroraShip"><path codeLine="51" d="M706.1194,964.744 C620.7194,995.414 538.19,1029.97 453.73,1077.69 C437.65,1086.78 421.22,1099.18 408.13,1109.96" fill="none" id="Ship-backto-AuroraShip" style="stroke:#181818;stroke-width:1;"/><polygon fill="none" points="723.06,958.66,704.0914,959.0971,708.1473,970.3908,723.06,958.66" style="stroke:#181818;stroke-width:1;"/></g><!--reverse link Ship to VanguardiaShip--><g class="link" data-entity-1="Ship" data-entity-2="VanguardiaShip" data-source-line="52" data-uid="lnk12" id="link_Ship_VanguardiaShip"><path codeLine="52" d="M920.73,1035.03 C920.73,1070.47 920.73,1087.61 920.73,1109.82" fill="none" id="Ship-backto-VanguardiaShip" style="stroke:#181818;stroke-width:1;"/><polygon fill="none" points="920.73,1017.03,914.73,1035.03,926.73,1035.03,920.73,1017.03" style="stroke:#181818;stroke-width:1;"/></g><!--reverse link Ship to CentinelaShip--><g class="link" data-entity-1="Ship" data-entity-2="CentinelaShip" data-source-line="53" data-uid="lnk13" id="link_Ship_CentinelaShip"><path codeLine="53" d="M1018.5084,1031.637 C1044.0284,1067.077 1058.83,1087.61 1074.83,1109.82" fill="none" id="Ship-backto-CentinelaShip" style="stroke:#181818;stroke-width:1;"/><polygon fill="none" points="1007.99,1017.03,1013.6394,1035.1431,1023.3774,1028.1309,1007.99,1017.03" style="stroke:#181818;stroke-width:1;"/></g><!--reverse link Ship to ResolucionShip--><g class="link" data-entity-1="Ship" data-entity-2="ResolucionShip" data-source-line="54" data-uid="lnk14" id="link_Ship_ResolucionShip"><path codeLine="54" d="M1108.9778,1027.3357 C1159.7278,1062.7757 1195.31,1087.61 1227.13,1109.82" fill="none" id="Ship-backto-ResolucionShip" style="stroke:#181818;stroke-width:1;"/><polygon fill="none" points="1094.22,1017.03,1105.5425,1032.255,1112.413,1022.4165,1094.22,1017.03" style="stroke:#181818;stroke-width:1;"/></g><!--reverse link Ship to InvictoShip--><g class="link" data-entity-1="Ship" data-entity-2="InvictoShip" data-source-line="55" data-uid="lnk15" id="link_Ship_InvictoShip"><path codeLine="55" d="M705.1827,920.2084 C541.1727,943.7584 322.89,988.12 133.73,1077.69 C116.46,1085.87 99.43,1098.74 86.27,1110.03" fill="none" id="Ship-backto-InvictoShip" style="stroke:#181818;stroke-width:1;"/><polygon fill="none" points="723,917.65,704.33,914.2693,706.0355,926.1474,723,917.65" style="stroke:#181818;stroke-width:1;"/></g><!--reverse link Ship to TempestadShip--><g class="link" data-entity-1="Ship" data-entity-2="TempestadShip" data-source-line="56" data-uid="lnk16" id="link_Ship_TempestadShip"><path codeLine="56" d="M705.7171,944.424 C583.5771,975.244 442.74,1017.28 309.73,1077.69 C290.32,1086.51 270.1,1099.01 253.95,1109.93" fill="none" id="Ship-backto-TempestadShip" style="stroke:#181818;stroke-width:1;"/><polygon fill="none" points="723.17,940.02,704.2491,938.6063,707.185,950.2416,723.17,940.02" style="stroke:#181818;stroke-width:1;"/></g><!--link Game to Player--><g class="link" data-entity-1="Game" data-entity-2="Player" data-source-line="105" data-uid="lnk23" id="link_Game_Player"><path codeLine="105" d="M1246.45,218.37 C1241.45,228.36 1236.48,238.35 1231.73,247.97 C1224.3,263.04 1219.0996,273.6872 1211.5696,289.2772" fill="none" id="Game-to-Player" style="stroke:#181818;stroke-width:1;"/><polygon fill="#181818" points="1208.96,294.68,1216.4762,288.3155,1211.1346,290.1777,1209.2725,284.8361,1208.96,294.68" style="stroke:#181818;stroke-width:1;"/><text fill="#000000" font-family="sans-serif" font-size="13" lengthAdjust="spacing" textLength="106.5391" x="1232.73" y="261.0369">player1, player2</text></g><!--link Game to Grid--><g class="link" data-entity-1="Game" data-entity-2="Grid" data-source-line="106" data-uid="lnk24" id="link_Game_Grid"><path codeLine="106" d="M1160.36,167.6 C1102.86,196.85 1040.89,238.71 1002.73,294.97 C951.21,370.95 942.0785,473.0401 942.5685,543.8901" fill="none" id="Game-to-Grid" style="stroke:#181818;stroke-width:1;"/><polygon fill="#181818" points="942.61,549.89,946.5477,540.8626,942.5754,544.8901,938.5479,540.9179,942.61,549.89" style="stroke:#181818;stroke-width:1;"/></g><!--link Game to BattleLog--><g class="link" data-entity-1="Game" data-entity-2="BattleLog" data-source-line="107" data-uid="lnk25" id="link_Game_BattleLog"><path codeLine="107" d="M1439.32,213.84 C1485.7,259.16 1525.73,317.34 1525.73,383.16 C1525.73,383.16 1525.73,383.16 1525.73,895.91 C1525.73,959.08 1510.2851,1023.9704 1496.0651,1071.6404" fill="none" id="Game-to-BattleLog" style="stroke:#181818;stroke-width:1;"/><polygon fill="#181818" points="1494.35,1077.39,1500.7558,1069.909,1495.7793,1072.5986,1493.0896,1067.6221,1494.35,1077.39" style="stroke:#181818;stroke-width:1;"/></g><!--link Game to CurrencyManager--><g class="link" data-entity-1="Game" data-entity-2="CurrencyManager" data-source-line="108" data-uid="lnk26" id="link_Game_CurrencyManager"><path codeLine="108" d="M1336.84,218.16 C1339.51,228.15 1341.88,238.2 1343.73,247.97 C1365.69,363.72 1367.6537,496.8903 1366.8937,568.5003" fill="none" id="Game-to-CurrencyManager" style="stroke:#181818;stroke-width:1;"/><polygon fill="#181818" points="1366.83,574.5,1370.9253,565.543,1366.8831,569.5003,1362.9257,565.4581,1366.83,574.5" style="stroke:#181818;stroke-width:1;"/></g><!--link Player to Ship--><g class="link" data-entity-1="Player" data-entity-2="Ship" data-source-line="109" data-uid="lnk27" id="link_Player_Ship"><path codeLine="109" d="M1145.67,473.53 C1128.57,537.42 1101.3,624.69 1064.73,696.13 C1051.47,722.03 1038.4251,743.3037 1021.4051,767.7837" fill="none" id="Player-to-Ship" style="stroke:#181818;stroke-width:1;"/><polygon fill="#181818" points="1017.98,772.71,1026.4019,767.6039,1020.8342,768.6047,1019.8334,763.0371,1017.98,772.71" style="stroke:#181818;stroke-width:1;"/><text fill="#000000" font-family="sans-serif" font-size="13" lengthAdjust="spacing" textLength="33.5981" x="1123.73" y="627.8069">owns</text></g><!--link Ship to Position--><g class="link" data-entity-1="Ship" data-entity-2="Position" data-source-line="110" data-uid="lnk28" id="link_Ship_Position"><path codeLine="110" d="M731.94,1017.03 C693.99,1041.38 661.3107,1062.351 630.1707,1082.321" fill="none" id="Ship-to-Position" style="stroke:#181818;stroke-width:1;"/><polygon fill="#181818" points="625.12,1085.56,634.8553,1084.0686,629.3289,1082.8609,630.5367,1077.3344,625.12,1085.56" style="stroke:#181818;stroke-width:1;"/></g><!--link Ship to Timer--><g class="link" data-entity-1="Ship" data-entity-2="Timer" data-source-line="111" data-uid="lnk29" id="link_Ship_Timer"><path codeLine="111" d="M828.38,1017.03 C809.81,1041.38 794.9885,1060.8191 779.7585,1080.7891" fill="none" id="Ship-to-Timer" style="stroke:#181818;stroke-width:1;"/><polygon fill="#181818" points="776.12,1085.56,784.7583,1080.8293,779.1521,1081.5843,778.3971,1075.978,776.12,1085.56" style="stroke:#181818;stroke-width:1;"/></g><!--link Ship to BattleLog--><g class="link" data-entity-1="Ship" data-entity-2="BattleLog" data-source-line="112" data-uid="lnk30" id="link_Ship_BattleLog"><path codeLine="112" d="M1116.21,1017.02 C1139.46,1028.53 1163.27,1039.09 1186.73,1047.69 C1255.07,1072.74 1278.13,1056.39 1347.73,1077.69 C1353.41,1079.43 1353.5121,1079.3431 1359.2921,1081.3831" fill="none" id="Ship-to-BattleLog" style="stroke:#181818;stroke-width:1;"/><polygon fill="#181818" points="1364.95,1083.38,1357.7944,1076.6127,1360.235,1081.7159,1355.1318,1084.1566,1364.95,1083.38" style="stroke:#181818;stroke-width:1;"/></g><!--link Grid to Ship--><g class="link" data-entity-1="Grid" data-entity-2="Ship" data-source-line="113" data-uid="lnk31" id="link_Grid_Ship"><path codeLine="113" d="M939.76,696.51 C937.5,719.99 935.4957,740.7477 932.9857,766.7877" fill="none" id="Grid-to-Ship" style="stroke:#181818;stroke-width:1;"/><polygon fill="#181818" points="932.41,772.76,937.2551,764.1853,932.8897,767.7831,929.292,763.4177,932.41,772.76" style="stroke:#181818;stroke-width:1;"/><text fill="#000000" font-family="sans-serif" font-size="13" lengthAdjust="spacing" textLength="55.0278" x="938.73" y="739.1969">contains</text></g><!--link Player to Grid--><g class="link" data-entity-1="Player" data-entity-2="Grid" data-source-line="114" data-uid="lnk32" id="link_Player_Grid"><path codeLine="114" d="M1030.53,473.5 C1020.16,482.92 1010.38,492.9 1001.73,503.35 C990.35,517.1 983.3765,528.1909 975.5665,544.4609" fill="none" id="Player-to-Grid" style="stroke:#181818;stroke-width:1;"/><polygon fill="#181818" points="972.97,549.87,980.4708,543.4874,975.1337,545.3624,973.2587,540.0254,972.97,549.87" style="stroke:#181818;stroke-width:1;"/><text fill="#000000" font-family="sans-serif" font-size="13" lengthAdjust="spacing" textLength="88.9878" x="1002.73" y="516.4169">interacts with</text></g><!--link Player to CurrencyManager--><g class="link" data-entity-1="Player" data-entity-2="CurrencyManager" data-source-line="115" data-uid="lnk33" id="link_Player_CurrencyManager"><path codeLine="115" d="M1241.12,473.78 C1269.82,507.97 1297.6536,541.1235 1321.8836,570.0035" fill="none" id="Player-to-CurrencyManager" style="stroke:#181818;stroke-width:1;"/><polygon fill="#181818" points="1325.74,574.6,1323.0197,565.1343,1322.5263,570.7696,1316.891,570.2762,1325.74,574.6" style="stroke:#181818;stroke-width:1;"/></g><!--link Player to BattleLog--><g class="link" data-entity-1="Player" data-entity-2="BattleLog" data-source-line="116" data-uid="lnk34" id="link_Player_BattleLog"><path codeLine="116" d="M1181.47,473.78 C1193.5,537.01 1213.06,623.38 1240.73,696.13 C1295.49,840.09 1385.1524,991.0731 1436.2124,1072.1431" fill="none" id="Player-to-BattleLog" style="stroke:#181818;stroke-width:1;"/><polygon fill="#181818" points="1439.41,1077.22,1437.9982,1067.4728,1436.7453,1072.9892,1431.229,1071.7363,1439.41,1077.22" style="stroke:#181818;stroke-width:1;"/></g><!--SRC=[XLLBRziu4BxxLyoUwiNQX-vX3q4SG55Khmhv0Kaki2WAWw4OcQWi2YJTnCZkVzyXHKgqcxP189FV33aFVZFp3XQB1SHPL2ImpTDrd6wZ31wI33xkakN6I2Uq8Kh1aXmPl4u0_-QmRSYPIUZip_ktm3yTk9IyWXe_RdzFj6vO9cfeHEsm-2GbQ-bvHLfIumtqSc-r_W2bYTJ6Y-dl3cdPYovFiXq0Uc3qwoTEjP3dMBGLrroqQX2hPwxfeNTp0D5IPRV_JIRlR3O-xfRHmoOFOdUH-UYLbhojeKLV7C9R3OGQQrk1QnN0FXW7PLpfs-B0kpjG-5NEYyVJsO1JyodF7GED7-_YgQibgPXLC5UQWsdbfKVnxLeqWwrGDdZCqJEklIucdz2lqq6AAQsP3cBlcH3T5sKUnMM4J83YxtHhSq4UCN2C4lga69k_ICc1aKOVF3syqSuj0iLESkeFAgPl4Ri3rh0ZQtN1T9YxKEIpfnYHz60Ju2Fg1RnLJ6ehS4V6PpTvUqlYiZsIYZJqr13D7iWHwMYFSCqaiUJoMiZcJUV0gSk6USCPNEhFe1AdnmOVc1zPaFXYTszpNroalCzqT9924fDl1tmYRNqYik8X66CCl6LDYELCYUP4qN00fkqtKo81Kh9Znx2-AejDxClU_ZkVXvP7yChwABZqOCIll1W5eISZUkLDdvzbdZw4tSYq5Ky-e_SPlk0_KDOqdXNOY2WRgcgiYUyAvsqnqiW88ZszblJSiKUlHHLNflzD-uuHlEzzL9PP0jbc6KGnDiFNaKP5J-RUAIIFPqp0jAWlurvbK0mKTex3tydOIoUaHekUeq-yOQPg0rUtco8jqyqwR82-Tb-7mjBm4gpFRYri3GYfOBfOpE2tHN1lcQwIiAkMM05okD6szx5LQz5DWvT86j8fLfaZOQkED-iFQPXHxFfFl0ulrPm2nSBJrizub-V9ElvdlqtoVRdBrpzINEzM-ys7VP8bgsHT5ZzICvMwny4P9yNdlxu4ZZaxi8hMqV8YxEjfvtqbLUL5ZZuNBwSw75G_Kw2aZPwUXAmkX3VmA4GpEfOdMHJZusAZCIxPgJwVt_aHT-Dd-coOuuEAgRbnDt1tXAuYcxWxZSXMzms8vrRrbMvj-a4m89OIupQmOUezk0XVG1Fixg4DgtDZecPcJ2d0SNy85NxYts3fVm00]--></g></svg>